<svg id="iconTaskPriorityMedium" class="icon" xmlns="http://www.w3.org/2000/svg" viewBox="0 0 80 80">
  <g fill="none">
    <path fill="#f2b756" fill-rule="evenodd"
          d="M14.477 12.235c0-.13.105-.235.235-.235h23.765a2 2 0 0 1 2 2a2 2 0 0 0 2 2h21.046a2 2 0 0 1 1.857 2.743l-6.606 16.514a2 2 0 0 0 0 1.486l6.606 16.514A2 2 0 0 1 63.523 56H42.477a2 2 0 0 1-2-2a2 2 0 0 0-2-2h-23.86a.14.14 0 0 1-.14-.14z"
          clip-rule="evenodd"/>
    <path stroke="#e08051" stroke-linecap="round" stroke-linejoin="round" stroke-width="2" d="M14.477 11v56"/>
  </g>
</svg>
