<svg xmlns="http://www.w3.org/2000/svg" viewBox="0 0 24 24">
  <g fill="none" stroke="currentColor" stroke-width="1.5">
    <path stroke-linecap="round" stroke-linejoin="round"
          d="M15.75 4.5h3.75A1.5 1.5 0 0 1 21 6v15.75a1.5 1.5 0 0 1-1.5 1.5h-15a1.5 1.5 0 0 1-1.5-1.5V6a1.5 1.5 0 0 1 1.5-1.5h3.75a3.75 3.75 0 0 1 7.5 0"/>
    <path d="M12 4.5a.375.375 0 0 1 0-.75m0 .75a.375.375 0 0 0 0-.75"/>
    <path stroke-linecap="round" stroke-linejoin="round"
          d="M6.75 10.5H12m3 0h2.25m0 3.75H12m-3 0H6.75m0 3.75H12m3 0h2.25"/>
  </g>
</svg>
