<svg xmlns="http://www.w3.org/2000/svg" viewBox="0 0 32 32">
  <path fill="currentColor"
        d="M18.287 3L17 3.44A2.17 2.17 0 0 0 15.56 5H7.5A2.5 2.5 0 0 0 5 7.5V9h14.774q.076.144.126.3l.55 1.7H5v13.5A2.5 2.5 0 0 0 7.5 27h17a2.5 2.5 0 0 0 2.5-2.5v-7.333a1.89 1.89 0 0 0 2 .05V24.5a4.5 4.5 0 0 1-4.5 4.5h-17A4.5 4.5 0 0 1 3 24.5v-17A4.5 4.5 0 0 1 7.5 3zm2.506 11.293a1 1 0 1 1 1.414 1.414l-7 7a1 1 0 0 1-1.414 0l-3.5-3.5a1 1 0 0 1 1.338-1.482l.076.068l2.793 2.793zM27.981 10a.36.36 0 0 1 .343.242l.298.918a1.9 1.9 0 0 0 1.2 1.197l.917.3l.019.003a.364.364 0 0 1 .176.552a.36.36 0 0 1-.176.132l-.92.299a1.9 1.9 0 0 0-1.197 1.197l-.3.918a.363.363 0 0 1-.683 0l-.299-.918a1.9 1.9 0 0 0-1.198-1.202l-.919-.298a.364.364 0 0 1-.176-.552a.36.36 0 0 1 .176-.132l.92-.299a1.9 1.9 0 0 0 1.179-1.197l.299-.918a.36.36 0 0 1 .34-.242M22.467 0a.67.67 0 0 1 .627.443l.547 1.683a3.47 3.47 0 0 0 2.198 2.196l1.684.547l.033.008a.67.67 0 0 1 .444.627a.665.665 0 0 1-.444.627l-1.684.547a3.47 3.47 0 0 0-2.197 2.196l-.548 1.683A.66.66 0 0 1 22.5 11a.665.665 0 0 1-.627-.443l-.548-1.683a3.47 3.47 0 0 0-2.197-2.204l-1.684-.547A.67.67 0 0 1 17 5.496a.665.665 0 0 1 .444-.627l1.684-.547a3.47 3.47 0 0 0 2.15-2.154l.014-.042l.547-1.683A.665.665 0 0 1 22.467 0"/>
</svg>
