<svg xmlns="http://www.w3.org/2000/svg" viewBox="0 0 16 16">
  <path fill="currentColor"
        d="M11.9 7.85a.5.5 0 0 0-.707-.707l-3.65 3.65l-1.65-1.65a.5.5 0 0 0-.707.707l2 2a.5.5 0 0 0 .707 0l4-4z"/>
  <path fill="currentColor" fill-rule="evenodd"
        d="M4.08 2.02A1.5 1.5 0 0 1 5.5 1h.268c.346-.598.992-1 1.73-1h1c.74 0 1.39.402 1.73 1h.268a1.5 1.5 0 0 1 1.42 1.02c.629.034 1.07.113 1.44.303a3.02 3.02 0 0 1 1.31 1.31c.327.642.327 1.48.327 3.16v4.4c0 1.68 0 2.52-.327 3.16a3 3 0 0 1-1.31 1.31c-.642.327-1.48.327-3.16.327h-4.4c-1.68 0-2.52 0-3.16-.327a3 3 0 0 1-1.31-1.31c-.327-.642-.327-1.48-.327-3.16v-4.4c0-1.68 0-2.52.327-3.16a3.02 3.02 0 0 1 1.31-1.31c.372-.189.81-.269 1.44-.303zm1.98-.024a.5.5 0 0 0 .433-.25l.144-.25a1 1 0 0 1 .867-.501h1a1 1 0 0 1 .867.5l.144.25a.5.5 0 0 0 .433.25h.556a.5.5 0 0 1 .5.5v1a.5.5 0 0 1-.5.5h-5a.5.5 0 0 1-.5-.5v-1a.5.5 0 0 1 .5-.5zM4 3.026l-.089.006c-.438.036-.663.101-.819.18a2 2 0 0 0-.874.874c-.08.156-.145.381-.18.82c-.037.45-.038 1.03-.038 1.89v4.4c0 .856.001 1.44.038 1.89c.036.437.101.662.18.818c.192.376.498.682.874.874c.156.08.381.145.819.18c.45.037 1.03.038 1.89.038h4.4c.857 0 1.44-.001 1.89-.038c.438-.036.663-.1.819-.18c.376-.192.682-.498.874-.874c.08-.156.145-.38.18-.819c.037-.45.038-1.03.038-1.89v-4.4c0-.857-.001-1.44-.038-1.89c-.036-.438-.101-.663-.18-.819a2 2 0 0 0-.874-.874c-.156-.08-.381-.145-.819-.18l-.089-.006v.469a1.5 1.5 0 0 1-1.5 1.5h-5a1.5 1.5 0 0 1-1.5-1.5v-.47z"
        clip-rule="evenodd"/>
</svg>
